<svg width="89" height="78" viewBox="0 0 89 78" fill="none" xmlns="http://www.w3.org/2000/svg">
<path d="M22.25 0H52.8438V4.875H22.25C20.7747 4.875 19.3599 5.38861 18.3167 6.30285C17.2735 7.21709 16.6875 8.45707 16.6875 9.75V68.25C16.6875 69.5429 17.2735 70.7829 18.3167 71.6971C19.3599 72.6114 20.7747 73.125 22.25 73.125H66.75C68.2253 73.125 69.6401 72.6114 70.6833 71.6971C71.7265 70.7829 72.3125 69.5429 72.3125 68.25V21.9375H77.875V68.25C77.875 70.8359 76.7029 73.3158 74.6166 75.1443C72.5302 76.9728 69.7005 78 66.75 78H22.25C19.2995 78 16.4698 76.9728 14.3834 75.1443C12.2971 73.3158 11.125 70.8359 11.125 68.25V9.75C11.125 7.16414 12.2971 4.68419 14.3834 2.85571C16.4698 1.02723 19.2995 0 22.25 0V0Z" fill="#084298"/>
<path d="M52.8438 14.625V0L77.875 21.9375H61.1875C58.9746 21.9375 56.8523 21.1671 55.2876 19.7957C53.7228 18.4244 52.8438 16.5644 52.8438 14.625Z" fill="#084298"/>
<path fill-rule="evenodd" clip-rule="evenodd" d="M44.5033 58.4995C45.2409 58.4995 45.9483 58.2427 46.4699 57.7856C46.9915 57.3284 47.2845 56.7084 47.2845 56.062V37.5711L53.6591 43.1627C54.1814 43.6204 54.8897 43.8776 55.6283 43.8776C56.3668 43.8776 57.0751 43.6204 57.5974 43.1627C58.1196 42.705 58.413 42.0843 58.413 41.437C58.413 40.7897 58.1196 40.1689 57.5974 39.7112L46.4724 29.9612C46.214 29.7342 45.9071 29.5541 45.5692 29.4312C45.2313 29.3084 44.8691 29.2451 44.5033 29.2451C44.1374 29.2451 43.7752 29.3084 43.4373 29.4312C43.0994 29.5541 42.7925 29.7342 42.5341 29.9612L31.4091 39.7112C30.8869 40.1689 30.5935 40.7897 30.5935 41.437C30.5935 42.0843 30.8869 42.705 31.4091 43.1627C31.9314 43.6204 32.6397 43.8776 33.3783 43.8776C34.1168 43.8776 34.8252 43.6204 35.3474 43.1627L41.722 37.5711V56.062C41.722 56.7084 42.015 57.3284 42.5366 57.7856C43.0582 58.2427 43.7656 58.4995 44.5033 58.4995Z" fill="#084298"/>
</svg>
