<svg width="21" height="16" viewBox="0 0 21 16" fill="none" xmlns="http://www.w3.org/2000/svg">
<g id="flag/AR" clip-path="url(#clip0_147_20237)">
<path id="Vector" d="M0 0.5H20.9591V15.5H0V0.5Z" fill="white"/>
<path id="Vector_2" d="M0 0.5H20.9591V5.5H0V0.5ZM0 10.5H20.9591V15.5H0V10.5Z" fill="#338AF3"/>
<path id="Vector_3" d="M10.4997 9.75487C11.4041 9.75487 12.1372 8.9694 12.1372 8.00048C12.1372 7.03156 11.4041 6.24609 10.4997 6.24609C9.59541 6.24609 8.8623 7.03156 8.8623 8.00048C8.8623 8.9694 9.59541 9.75487 10.4997 9.75487Z" fill="#FFDA44"/>
<path id="Vector (Stroke)" fill-rule="evenodd" clip-rule="evenodd" d="M10.4995 6.35504C9.65173 6.35504 8.96444 7.09141 8.96444 7.99978C8.96444 8.90814 9.65173 9.64451 10.4995 9.64451C11.3473 9.64451 12.0346 8.90814 12.0346 7.99978C12.0346 7.09141 11.3473 6.35504 10.4995 6.35504ZM8.75977 7.99978C8.75977 6.9703 9.53869 6.13574 10.4995 6.13574C11.4604 6.13574 12.2393 6.9703 12.2393 7.99978C12.2393 9.02926 11.4604 9.86381 10.4995 9.86381C9.53869 9.86381 8.75977 9.02926 8.75977 7.99978Z" fill="#D6AB00"/>
</g>
<defs>
<clipPath id="clip0_147_20237">
<rect width="21" height="15" fill="white" transform="translate(0 0.5)"/>
</clipPath>
</defs>
</svg>
